<?xml version="1.0" standalone="no"?>
<!DOCTYPE svg PUBLIC "-//W3C//DTD SVG 20010904//EN"
 "http://www.w3.org/TR/2001/REC-SVG-20010904/DTD/svg10.dtd">
<svg version="1.0" xmlns="http://www.w3.org/2000/svg"
 width="429.000000pt" height="305.000000pt" viewBox="0 0 429.000000 305.000000"
 preserveAspectRatio="xMidYMid meet">

<g transform="translate(0.000000,305.000000) scale(0.100000,-0.100000)"
fill="#000000" stroke="none">
<path d="M3227 2385 c-162 -60 -425 -375 -653 -780 l-49 -88 -3 332 -2 331
-505 0 -505 0 0 -470 0 -470 396 -2 397 -3 13 -37 c7 -21 15 -52 17 -70 6 -57
73 -73 175 -43 48 14 52 18 57 53 39 238 284 690 606 1120 59 78 104 142 101
141 -4 0 -24 -7 -45 -14z m-757 -612 c0 -236 -4 -363 -11 -373 -7 -10 -12 -11
-15 -4 -12 30 -92 155 -131 206 -81 106 -111 116 -209 73 l-56 -25 24 -32 c63
-84 80 -110 137 -205 33 -56 61 -107 61 -113 0 -7 -117 -10 -355 -10 l-355 0
0 420 0 420 455 0 455 0 0 -357z"/>
<path d="M90 1735 l0 -375 70 0 70 0 0 139 0 139 128 4 c158 5 209 25 257 102
57 94 45 229 -29 302 -54 55 -101 64 -321 64 l-175 0 0 -375z m374 216 c32
-30 42 -80 24 -118 -21 -45 -70 -63 -170 -63 l-88 0 0 106 0 106 104 -4 c94
-3 107 -5 130 -27z"/>
<path d="M780 1736 l0 -376 75 0 75 0 0 156 0 156 55 -4 c71 -6 97 -30 201
-189 l78 -119 89 0 89 0 -23 38 c-88 145 -153 234 -187 260 l-40 28 49 17
c100 36 145 106 137 216 -5 74 -41 131 -101 163 -39 21 -57 23 -269 26 l-228
4 0 -376z m426 211 c31 -36 31 -78 0 -114 -24 -27 -27 -28 -150 -32 l-126 -3
0 92 0 92 126 -4 c124 -3 126 -3 150 -31z"/>
<path d="M3270 1735 l0 -375 280 0 280 0 0 65 0 65 -210 0 -210 0 0 100 0 100
185 0 185 0 0 65 0 65 -185 0 -185 0 0 80 0 80 200 0 200 0 0 65 0 65 -270 0
-270 0 0 -375z"/>
<path d="M3711 758 c-19 -29 -58 -89 -86 -133 -68 -105 -95 -151 -95 -159 0
-3 99 -6 220 -6 l219 0 -20 33 c-12 17 -44 69 -72 113 -29 45 -63 100 -77 123
-54 90 -51 89 -89 29z m-21 -203 c0 -16 -9 -19 -34 -9 -24 9 -19 19 9 22 16 1
25 -3 25 -13z m80 0 c0 -7 -15 -12 -35 -12 -20 0 -35 5 -35 12 0 7 15 12 35
12 20 0 35 -5 35 -12z m77 -1 c2 -6 -11 -11 -32 -11 -20 0 -35 5 -35 12 0 15
62 14 67 -1z"/>
<path d="M3403 272 l-111 -177 114 -3 c63 -1 164 -1 223 0 l108 3 -79 125
c-44 69 -94 149 -111 177 l-32 53 -112 -178z m85 -75 c17 -1 32 1 32 6 0 4 5
5 10 2 6 -3 10 -10 10 -16 0 -13 -87 -11 -96 2 -5 8 -9 8 -14 -1 -5 -8 -9 -7
-14 5 -5 14 -2 16 16 11 13 -4 38 -8 56 -9z m132 -13 c0 -16 -26 -19 -35 -4
-3 5 -12 7 -20 3 -9 -3 -15 1 -15 9 0 10 10 13 35 10 21 -3 35 -10 35 -18z"/>
<path d="M3948 409 c-14 -19 -40 -59 -58 -89 -17 -30 -56 -93 -86 -140 l-55
-85 217 -3 c119 -1 219 0 221 2 6 6 -24 59 -82 146 -39 58 -50 77 -75 120 -10
19 -28 46 -38 59 l-19 24 -25 -34z m13 -216 c8 -8 -3 -11 -35 -10 -26 0 -46 5
-46 11 0 14 68 12 81 -1z m99 -4 c0 -4 -4 -11 -10 -14 -5 -3 -10 -2 -10 4 0 6
-7 8 -15 5 -9 -4 -15 0 -15 9 0 10 8 13 25 9 14 -2 25 -8 25 -13z m-60 1 c0
-5 -4 -10 -10 -10 -5 0 -10 5 -10 10 0 6 5 10 10 10 6 0 10 -4 10 -10z"/>
<path d="M3688 385 c2 -14 6 -25 7 -25 1 0 5 11 7 25 3 16 1 25 -7 25 -8 0
-10 -9 -7 -25z"/>
<path d="M3720 401 c0 -5 -2 -16 -5 -23 -4 -9 2 -14 13 -14 13 0 18 6 14 18
-5 20 -22 35 -22 19z"/>
<path d="M3779 388 c-1 -17 -2 -19 -6 -5 -6 22 -26 22 -21 0 2 -10 11 -19 21
-21 12 -3 17 3 17 22 0 32 -10 35 -11 4z"/>
<path d="M3678 343 c-9 -17 -2 -38 12 -38 18 0 20 37 3 42 -6 2 -13 0 -15 -4z"/>
<path d="M3720 325 c0 -17 5 -25 18 -25 14 0 15 2 2 10 -13 9 -13 10 0 10 12
0 13 2 1 9 -11 7 -11 9 0 14 10 4 9 6 -3 6 -13 1 -18 -7 -18 -24z"/>
<path d="M3761 323 c0 -16 3 -22 6 -15 2 6 9 10 14 6 5 -3 9 4 9 15 0 12 -7
21 -15 21 -10 0 -15 -9 -14 -27z"/>
<path d="M3802 325 c0 -16 2 -22 5 -12 2 9 2 23 0 30 -3 6 -5 -1 -5 -18z"/>
</g>
</svg>
